<svg width="25" height="24" viewBox="0 0 25 24" fill="none" xmlns="http://www.w3.org/2000/svg">
<path fill-rule="evenodd" clip-rule="evenodd" d="M3.07129 8.5715C3.07129 7.73015 3.67738 7.03037 4.47677 6.88495C5.02412 1.71436 7.47965 1.71436 12.4999 1.71436C17.5201 1.71436 19.9756 1.71436 20.523 6.88495C21.3223 7.03037 21.9284 7.73015 21.9284 8.5715C21.9284 9.37757 21.3721 10.0537 20.6224 10.2369C20.3793 14.5182 17.949 18.3803 13.357 18.8163V21.0348C13.8801 21.0784 14.3067 21.1575 14.6363 21.2399C14.8833 21.3017 15.0751 21.3651 15.2116 21.4162C15.2798 21.4418 15.3342 21.4644 15.3747 21.4821C15.3949 21.4909 15.4117 21.4986 15.4251 21.5049L15.4424 21.5131L15.4492 21.5164L15.4521 21.5178L15.4534 21.5185L15.454 21.5188C15.4543 21.519 15.4546 21.5191 15.0713 22.2858L15.4546 21.5191C15.878 21.7308 16.0497 22.2457 15.838 22.6691C15.6277 23.0896 15.1185 23.2618 14.6968 23.0568L14.6876 23.0526C14.6745 23.0469 14.6485 23.036 14.6096 23.0214C14.5318 22.9922 14.4022 22.9484 14.2206 22.903C13.8579 22.8124 13.2848 22.7143 12.4999 22.7143C11.7149 22.7143 11.1419 22.8124 10.7792 22.903C10.5976 22.9484 10.4679 22.9922 10.3901 23.0214C10.3512 23.036 10.3252 23.0469 10.3122 23.0526L10.303 23.0568C9.88128 23.2618 9.37204 23.0896 9.1618 22.6691C8.95009 22.2457 9.12171 21.7308 9.54512 21.5191L9.92845 22.2858C9.54512 21.5191 9.54543 21.519 9.54573 21.5188L9.54636 21.5185L9.54768 21.5178L9.55057 21.5164L9.55731 21.5131L9.57469 21.5049C9.58802 21.4986 9.60481 21.4909 9.62507 21.4821C9.66559 21.4644 9.71997 21.4418 9.7882 21.4162C9.9247 21.3651 10.1165 21.3017 10.3634 21.2399C10.693 21.1575 11.1196 21.0784 11.6427 21.0348V18.8202C7.02739 18.4038 4.61725 14.5312 4.37697 10.2368C3.62747 10.0535 3.07129 9.37746 3.07129 8.5715ZM13.0034 5.88181C12.7765 5.49958 12.2232 5.49958 11.9963 5.88181C11.327 7.00963 10.4087 7.67569 9.10692 7.95232C8.66461 8.04632 8.49126 8.58488 8.79568 8.91923C9.66947 9.87893 10.02 10.9612 9.88843 12.2364C9.8425 12.6815 10.2926 13.0115 10.7033 12.8339C11.9233 12.3063 13.0563 12.2976 14.2964 12.8339C14.7071 13.0115 15.1572 12.6815 15.1113 12.2364C14.9797 10.9612 15.3302 9.87893 16.204 8.91923C16.5084 8.58488 16.3351 8.04632 15.8928 7.95232C14.6102 7.67976 13.6829 7.02681 13.0034 5.88181Z" fill="#868686"/>
</svg>
