<svg width="24" height="22" viewBox="0 0 24 22" fill="none" xmlns="http://www.w3.org/2000/svg">
<g clip-path="url(#clip0_31_1981)">
<path d="M22.0125 3.01427C21.5375 1.2629 19.7083 0.225206 17.9292 0.692784L17.2875 0.860948C16.575 1.04962 16.1542 1.77149 16.3458 2.46876L17.3667 6.21759L12.8542 7.37013L12.5917 6.62774C12.4042 6.10274 11.9 5.75001 11.3333 5.75001C10.7667 5.75001 10.2625 6.10274 10.075 6.62774L9.50833 8.22735L4 9.63009V8.04689C4 7.50138 3.55417 7.06251 3 7.06251C2.44583 7.06251 2 7.50138 2 8.04689V18.875H1.33333C0.595833 18.875 0 19.4615 0 20.1875C0 20.9135 0.595833 21.5 1.33333 21.5H22.6667C23.4042 21.5 24 20.9135 24 20.1875C24 19.4615 23.4042 18.875 22.6667 18.875H16.9458L14.1667 11.0615L11.575 11.7219L12.7208 14.9375H9.94583L11.0417 11.8613L7.93333 12.6529L5.72083 18.875H4V12.3453L18.0583 8.75646L19.1083 12.6119C19.3 13.3133 20.0292 13.7275 20.7417 13.5389L21.3875 13.3707C23.1667 12.9031 24.2208 11.1025 23.7458 9.35118L22.0125 3.01427ZM8.54583 18.875L9.0125 17.5625H13.6542L14.1208 18.875H8.54583Z" fill="#A1A1A1"/>
</g>
<defs>
<clipPath id="clip0_31_1981">
<rect width="24" height="21" fill="#A1A1A1" transform="translate(0 0.5)"/>
</clipPath>
</defs>
</svg>
