<svg width="24" height="24" viewBox="0 0 24 24" fill="none" xmlns="http://www.w3.org/2000/svg">
<path fill-rule="evenodd" clip-rule="evenodd" d="M4.6315 3C4.4425 3 4.274 3.131 4.209 3.328L3.055 6.8335C3.01856 6.94436 3 7.06031 3 7.177V8.5715C3 9.36 3.5755 10 4.2855 10C4.9955 10 5.5715 9.36 5.5715 8.5715C5.5715 9.3605 6.147 10 6.857 10C7.567 10 8.143 9.36 8.143 8.5715C8.143 9.3605 8.7185 10 9.4285 10C10.1385 10 10.7135 9.361 10.7145 8.5725C10.7145 9.361 11.29 10 12 10C12.71 10 13.2855 9.36 13.2855 8.5715C13.2855 9.3605 13.8615 10 14.5715 10C15.2815 10 15.8565 9.361 15.857 8.5725C15.8575 9.361 16.433 10 17.143 10C17.853 10 18.4285 9.36 18.4285 8.5715C18.4285 9.3605 19.004 10 19.7145 10C20.4245 10 21 9.36 21 8.5715V7.177C21 7.06031 20.9814 6.94436 20.945 6.8335L19.791 3.3285C19.726 3.131 19.5575 3 19.3685 3H4.6315Z" fill="white"/>
<path fill-rule="evenodd" clip-rule="evenodd" d="M5 10.615V14.5H3.75C3.6837 14.5 3.62011 14.5263 3.57322 14.5732C3.52634 14.6201 3.5 14.6837 3.5 14.75V15.25C3.5 15.3163 3.52634 15.3799 3.57322 15.4268C3.62011 15.4737 3.6837 15.5 3.75 15.5H20.25C20.3163 15.5 20.3799 15.4737 20.4268 15.4268C20.4737 15.3799 20.5 15.3163 20.5 15.25V14.75C20.5 14.6837 20.4737 14.6201 20.4268 14.5732C20.3799 14.5263 20.3163 14.5 20.25 14.5H19V10.615C18.7906 10.5317 18.5973 10.4128 18.4285 10.2635C18.2987 10.3776 18.1547 10.4744 18 10.5515V14.5H6V10.5515C5.84532 10.4744 5.70129 10.3776 5.5715 10.2635C5.4035 10.411 5.2115 10.531 5 10.615ZM18 9.6365C18.0423 9.59417 18.0823 9.54867 18.12 9.5H18V9.6365ZM18.737 9.5C18.8128 9.59774 18.9013 9.685 19 9.7595V9.5H18.737ZM5 9.7595C5.09957 9.68596 5.18814 9.59858 5.263 9.5H5V9.7595ZM5.88 9.5H6V9.6365C5.95728 9.59347 5.9172 9.54788 5.88 9.5ZM4.25 16.5C4.1837 16.5 4.12011 16.5263 4.07322 16.5732C4.02634 16.6201 4 16.6837 4 16.75V20.5C4 20.6326 4.05268 20.7598 4.14645 20.8536C4.24021 20.9473 4.36739 21 4.5 21H19.5C19.6326 21 19.7598 20.9473 19.8536 20.8536C19.9473 20.7598 20 20.6326 20 20.5V16.75C20 16.6837 19.9737 16.6201 19.9268 16.5732C19.8799 16.5263 19.8163 16.5 19.75 16.5H4.25Z" fill="white"/>
<path d="M7 13.25C7 13.1837 7.02634 13.1201 7.07322 13.0732C7.12011 13.0263 7.1837 13 7.25 13H8.75C8.8163 13 8.87989 13.0263 8.92678 13.0732C8.97366 13.1201 9 13.1837 9 13.25V14.25C9 14.3163 8.97366 14.3799 8.92678 14.4268C8.87989 14.4737 8.8163 14.5 8.75 14.5H7.25C7.1837 14.5 7.12011 14.4737 7.07322 14.4268C7.02634 14.3799 7 14.3163 7 14.25V13.25Z" fill="white"/>
<path d="M8 13.75C8 13.6837 8.02634 13.6201 8.07322 13.5732C8.12011 13.5263 8.1837 13.5 8.25 13.5H9.75C9.8163 13.5 9.87989 13.5263 9.92678 13.5732C9.97366 13.6201 10 13.6837 10 13.75V14.25C10 14.3163 9.97366 14.3799 9.92678 14.4268C9.87989 14.4737 9.8163 14.5 9.75 14.5H8.25C8.1837 14.5 8.12011 14.4737 8.07322 14.4268C8.02634 14.3799 8 14.3163 8 14.25V13.75ZM12 13.75C12 13.9489 11.921 14.1397 11.7803 14.2803C11.6397 14.421 11.4489 14.5 11.25 14.5C11.0511 14.5 10.8603 14.421 10.7197 14.2803C10.579 14.1397 10.5 13.9489 10.5 13.75C10.5 13.5511 10.579 13.3603 10.7197 13.2197C10.8603 13.079 11.0511 13 11.25 13C11.4489 13 11.6397 13.079 11.7803 13.2197C11.921 13.3603 12 13.5511 12 13.75Z" fill="white"/>
</svg>
