<svg width="17" height="17" viewBox="0 0 17 17" fill="none" xmlns="http://www.w3.org/2000/svg">
<path fill-rule="evenodd" clip-rule="evenodd" d="M13.2604 1.83596C11.4928 1.836 9.79761 2.53798 8.54749 3.78757L6.50105 5.83312L5.05236 5.83314C4.69874 5.83315 4.35961 5.97362 4.10956 6.22367L1.16675 9.16648L5.02199 9.16648L7.83342 11.9779L7.83341 15.8331L10.7762 12.8903C11.0263 12.6403 11.1667 12.3012 11.1668 11.9475L11.1668 10.5015L13.212 8.45783C14.4634 7.20744 15.1665 5.51094 15.1665 3.74192V2.5026C15.1665 2.13441 14.868 1.83593 14.4998 1.83594L13.2604 1.83596ZM10.4999 5.5C10.4999 6.05228 10.9476 6.5 11.4999 6.5C12.0522 6.5 12.4999 6.05228 12.4999 5.5C12.4999 4.94772 12.0522 4.5 11.4999 4.5C10.9476 4.5 10.4999 4.94772 10.4999 5.5Z" fill="#FF7618"/>
<path d="M6.33824 12.6618C5.58809 13.412 4.57068 13.8334 3.50981 13.8334H3.16667L3.16665 13.4904C3.1666 12.4295 3.58807 11.4119 4.33832 10.6617L4.5 10.5001L6.5 12.5001L6.33824 12.6618Z" fill="#FF7618"/>
</svg>
