<svg width="21" height="18" viewBox="0 0 21 18" fill="none" xmlns="http://www.w3.org/2000/svg">
<path fill-rule="evenodd" clip-rule="evenodd" d="M6.5 2.00024C6.5 0.895675 7.39543 0.000244141 8.5 0.000244141H12.5C13.6046 0.000244141 14.5 0.895674 14.5 2.00024V3.99976H18.5C19.6046 3.99976 20.5 4.89519 20.5 5.99976V7.99976H0.5V5.99976C0.5 4.89519 1.39543 3.99976 2.5 3.99976H6.5V2.00024ZM12.5 2.00024V3.99976H8.5V2.00024H12.5Z" fill="#A5A5A5"/>
<path fill-rule="evenodd" clip-rule="evenodd" d="M20.5 9.99976H0.5V15.9998C0.5 17.1043 1.39543 17.9998 2.5 17.9998H18.5C19.6046 17.9998 20.5 17.1043 20.5 15.9998V9.99976ZM12.5 10.0002C12.5 11.1048 11.6046 12.0002 10.5 12.0002C9.39543 12.0002 8.5 11.1048 8.5 10.0002H12.5Z" fill="#A5A5A5"/>
</svg>
