<svg width="24" height="24" viewBox="0 0 24 24" fill="none" xmlns="http://www.w3.org/2000/svg">
<g clip-path="url(#clip0_62_1039)">
<path d="M6.60002 1.95C5.70002 2.4 5.40002 3.6 6.00002 4.2C6.75002 2.85 7.95002 3.3 9.75002 4.8C10.95 5.85 12.6 4.95 12.6 4.95C12.6 4.95 12.9 6.75 15.15 7.05C17.7 7.35 18.6 5.85 18.6 5.85C18.6 5.85 19.2 7.35 21.45 6.45C23.1 5.85 22.5 4.8 22.5 4.8C22.5 4.8 24 4.8 24 3.75C24 2.4 22.35 2.55 22.35 2.55C22.35 2.55 22.65 1.05 21 0.9C19.5 0.75 19.05 1.65 19.05 1.65C19.05 1.65 18.6 0 16.35 0C14.25 0 13.5 1.95 13.5 1.95C13.5 1.95 12.9 1.05 11.1 1.05C9.75002 1.05 9.15002 2.1 9.15002 2.1C9.15002 2.1 7.50002 1.35 6.60002 1.95Z" fill="#FF7618"/>
<path d="M18 18.15V15L12 18.15V15H8.4L7.5 4.5H4.5L3.6 15H0V24H24V15L18 18.15ZM9 21H3V18H9V21Z" fill="#FF7618"/>
</g>
<defs>
<clipPath id="clip0_62_1039">
<rect width="24" height="24" fill="#FF7618"/>
</clipPath>
</defs>
</svg>
